<?xml version="1.0" encoding="utf-8"?>
<!-- Generator: Adobe Illustrator 26.5.0, SVG Export Plug-In . SVG Version: 6.00 Build 0)  -->
<svg version="1.1" xmlns="http://www.w3.org/2000/svg" xmlns:xlink="http://www.w3.org/1999/xlink" x="0px" y="0px"
	 viewBox="0 0 96 68.6" style="enable-background:new 0 0 96 68.6;" xml:space="preserve">
<style type="text/css">
	.st0{fill:url(#SVGID_1_);}
	.st1{fill:#0B66F2;}
	.st2{fill:url(#SVGID_00000103261276769932479250000003799510951367701383_);}
	.st3{fill:url(#SVGID_00000046330172983663805040000006265555536091555509_);}
	.st4{fill:none;stroke:#001B69;stroke-width:0.3974;stroke-miterlimit:10;}
	.st5{fill:none;stroke:#001B69;stroke-width:0.3985;stroke-miterlimit:10;}
	.st6{fill:url(#SVGID_00000084521371127926088930000002483018063785479327_);}
	.st7{fill:url(#SVGID_00000156545494769414604160000005974191382789877902_);}
	.st8{fill:url(#SVGID_00000158712276724426012170000003307993277753729691_);}
	.st9{fill:url(#SVGID_00000132804782415292703280000013076894098778505912_);}
	.st10{fill:url(#SVGID_00000037678134044326300600000012943373589630212234_);}
	.st11{fill:url(#SVGID_00000159431420906141011970000010323222735949577089_);}
	.st12{fill:url(#SVGID_00000127012981584619200350000018380430082890729661_);}
	.st13{fill:url(#SVGID_00000080917897389413626510000014104734988056143270_);}
	.st14{fill:url(#SVGID_00000155131483254167283230000006355843619337841306_);}
	.st15{fill:url(#SVGID_00000075844251410152669320000000120519346863399829_);}
	.st16{fill:url(#SVGID_00000019650965970585560500000003339128855053002911_);}
	.st17{fill:url(#SVGID_00000132774713300513684500000011196365972478090424_);}
	.st18{fill:url(#SVGID_00000147920051106703994370000015185961095619374213_);}
	.st19{fill:url(#SVGID_00000033353780568181782500000004493269875260130183_);}
	.st20{fill:url(#SVGID_00000114061275953336166160000002813924397049327238_);}
	.st21{fill:url(#SVGID_00000178892022166942249080000016727017330398390956_);}
	.st22{fill:url(#SVGID_00000147901219631817835470000001468671383841910956_);}
	.st23{fill:url(#SVGID_00000063612297379938904270000004372839440494804644_);}
	.st24{fill:url(#SVGID_00000035507534723058110160000018044026193165079224_);}
	.st25{fill:url(#SVGID_00000071524065121504261380000012628905017265341622_);}
	.st26{fill:url(#SVGID_00000053523546179668054020000002083154133565611689_);}
	.st27{fill:#FFFFFF;}
	.st28{fill:url(#SVGID_00000040533848226383994100000008685819276014293405_);}
	.st29{fill:url(#SVGID_00000145031790041199042660000007439400063103135883_);}
	.st30{fill:url(#SVGID_00000180333868893525915910000012015665522249608592_);}
	.st31{fill:url(#SVGID_00000010276868311010307700000003229880526488231074_);}
	.st32{fill:url(#SVGID_00000150080433507509747290000011000203044405348008_);}
	.st33{fill:url(#SVGID_00000106850923760786474560000014980006374168546700_);}
	.st34{fill:url(#SVGID_00000049180819354253462010000004554383399277574532_);}
	.st35{fill:url(#SVGID_00000107547652022344718930000017481260144377669248_);}
	.st36{fill:url(#SVGID_00000088115965942692116140000007231929770831942832_);}
	.st37{fill:url(#SVGID_00000098903853403135259830000003038589282572554669_);}
	.st38{fill:url(#SVGID_00000080178314897165890080000006390598873335935893_);}
	.st39{fill:url(#SVGID_00000109006023079391849360000006223493859473222543_);}
	.st40{fill:url(#SVGID_00000140001186422630091290000012409858434096052900_);}
	.st41{fill:url(#SVGID_00000070809347921287522570000003195504270382941824_);}
	.st42{fill:url(#SVGID_00000019636863629812670590000008778203742744737981_);}
	.st43{fill:url(#SVGID_00000086691245718337530790000004798925317056140200_);}
	.st44{fill:url(#SVGID_00000078043546574188855730000003517881823132885166_);}
	.st45{fill:url(#SVGID_00000054227825925008914640000010612157533456518323_);}
	.st46{fill:url(#SVGID_00000182516405285027982470000015268249455686057105_);}
	.st47{fill:url(#SVGID_00000152246094642995271800000001964826506354126216_);}
	.st48{fill:url(#SVGID_00000031187606484663717780000000363284499072221089_);}
	.st49{fill:url(#SVGID_00000047745076434628864770000001480383551443134398_);}
	.st50{fill:url(#SVGID_00000015352754688238190000000002299292834927709326_);}
	.st51{fill:url(#SVGID_00000025409885266872004370000012715213498352182966_);}
	.st52{fill:url(#SVGID_00000139277232849236293840000012142999189202393509_);}
	.st53{fill:url(#SVGID_00000080923990783140365720000015898083453592337298_);}
	.st54{fill:url(#SVGID_00000177474344446184808000000007310612665533981324_);}
	.st55{fill:url(#SVGID_00000180334203789891863430000011356201298343969699_);}
	.st56{fill:url(#SVGID_00000178165758538621265930000011760322138385402292_);}
	.st57{fill:url(#SVGID_00000081637982490830992310000005384632394620562360_);}
	.st58{fill:url(#SVGID_00000123427033088406758750000008087392679742102458_);}
	.st59{fill:url(#SVGID_00000011752764134568254300000000840400122426021030_);}
	.st60{fill:url(#SVGID_00000107589180038318757800000016323288839523523473_);}
	.st61{fill:url(#SVGID_00000044900471256879305980000011997739577616405397_);}
	.st62{fill:url(#SVGID_00000142148575297781679800000008168189941820695445_);}
	.st63{fill:url(#SVGID_00000166655342403568285840000010297041297535293067_);}
	.st64{fill:url(#SVGID_00000150783177663378493770000012115864427891206288_);}
	.st65{fill:url(#SVGID_00000173883860335933511920000000288790272806833594_);}
	.st66{fill:url(#SVGID_00000170957217143214372290000017727136284385199494_);}
	.st67{fill:#3BA4FE;}
	.st68{fill:url(#SVGID_00000030454639358928701570000017618858060407170438_);}
	.st69{fill:url(#SVGID_00000096047917256308389680000003446693755281689501_);}
	.st70{fill:url(#SVGID_00000137845185621355123020000007481681571467049103_);}
	.st71{fill:url(#SVGID_00000004525490171732335250000006698009783372039565_);}
	.st72{fill:url(#SVGID_00000053542368452115020920000009405927898139060649_);}
	.st73{fill:url(#SVGID_00000170988191314126060520000000026260911230463410_);}
	.st74{fill:url(#SVGID_00000044888263266548776390000013599338303381726850_);}
	.st75{fill:url(#SVGID_00000152241417531194677370000005904966134934516884_);}
	.st76{fill:url(#SVGID_00000131350528351877748200000016340682114960520866_);}
	.st77{fill:url(#SVGID_00000155831545700393380130000002334152983109149090_);}
	.st78{fill:url(#SVGID_00000117664485028196350500000013953005358547284878_);}
	.st79{fill:url(#SVGID_00000054985227792761417070000006403815294729298819_);}
	.st80{fill:url(#SVGID_00000174602312590101129750000012248913722455047297_);}
	.st81{fill:url(#SVGID_00000121964366621321979500000014515743406260606865_);}
	.st82{fill:url(#SVGID_00000101798958527629241170000001125960442512560517_);}
	.st83{fill:url(#SVGID_00000125603326458476377340000011016828071471677622_);}
	.st84{fill:url(#SVGID_00000029009645823846806130000007506507346732278434_);}
	.st85{fill:url(#SVGID_00000097490356637172036470000012513270865756375173_);}
	.st86{fill:url(#SVGID_00000089561707940963026390000012924271059318362546_);}
	.st87{fill:url(#SVGID_00000093862073675744352120000011355824939880898451_);}
	.st88{fill:url(#SVGID_00000075134492382110579810000005426675606481145761_);}
	.st89{fill:url(#SVGID_00000103238489263056030930000000980622881824629385_);}
	.st90{fill:url(#SVGID_00000067958611984078584530000009826297977530871479_);}
	.st91{fill:url(#SVGID_00000041287955334599414170000010396599847358309534_);}
	.st92{fill:url(#SVGID_00000013192963147631340820000002079031732696439182_);}
	.st93{fill:url(#SVGID_00000132055611411844702870000002799174780840282524_);}
	.st94{fill:url(#SVGID_00000071551392226214663980000015694526112920759184_);}
	.st95{fill:url(#SVGID_00000147917349710393586180000009169257496247793084_);}
	.st96{fill:url(#SVGID_00000130639964407139115680000001380524507663318202_);}
	.st97{fill:url(#SVGID_00000155125828189797603210000008525605076289461418_);}
	.st98{fill:url(#SVGID_00000122716723941277755910000010476703444752378762_);}
	.st99{fill:url(#SVGID_00000136392236437739724120000004540319648556571063_);}
	.st100{fill:url(#SVGID_00000143593073136937186800000016452149061842812568_);}
	.st101{fill:url(#SVGID_00000147912820576913407550000002525154782704942722_);}
	.st102{fill:url(#SVGID_00000172427587387367759710000002452443323216396727_);}
	.st103{fill:#001B69;}
	.st104{fill:url(#SVGID_00000083050859997677919660000002109192401030967455_);}
	.st105{fill:url(#SVGID_00000071521816472547265040000016431505149556054717_);}
	.st106{fill:url(#SVGID_00000145054085584461828350000010010822358860832654_);}
	.st107{fill:url(#SVGID_00000075159308377131844420000002079898076767867556_);}
	.st108{fill:url(#SVGID_00000180346704541843472030000015581177856338986403_);}
	.st109{fill:url(#SVGID_00000102523331018140124220000006597340679013010319_);}
	.st110{fill:url(#SVGID_00000115473691578630052410000011527287331233309628_);}
	.st111{fill:url(#SVGID_00000047756861845341645800000003354468764023171733_);}
	.st112{fill:url(#SVGID_00000060006901398216946750000014186901621576145081_);}
	.st113{fill:url(#SVGID_00000026143063244375640870000017631098208393669548_);}
	.st114{fill:url(#SVGID_00000030476283287026544300000000872204719718532771_);}
	.st115{fill:url(#SVGID_00000012448127730027303230000008659524700991935166_);}
	.st116{fill:url(#SVGID_00000070102736293493247390000015685663708683874495_);}
	.st117{fill:url(#SVGID_00000041265601761720609740000000760311815044460951_);}
	.st118{fill:url(#SVGID_00000129189911494918877410000000092058389352291263_);}
	.st119{fill:url(#SVGID_00000106847219678668565750000002118706314490528446_);}
	.st120{fill:url(#SVGID_00000021114392320073132550000014598974595311304583_);}
	.st121{fill:url(#SVGID_00000041254675348855375530000008404935224812169859_);}
	.st122{fill:url(#SVGID_00000047744528325476069130000009755644617755844542_);}
	.st123{fill:url(#SVGID_00000013876783163174571660000002301555901194415274_);}
	.st124{fill:url(#SVGID_00000154405862194246888290000013687541878866701977_);}
	.st125{fill:url(#SVGID_00000173847973160401685580000004772357715016915128_);}
	.st126{fill:url(#SVGID_00000067232070073627413590000008139136782330752136_);}
	.st127{fill:url(#SVGID_00000167395887666464174440000016582028730450466996_);}
</style>
<g id="Layer_1">
</g>
<g id="Layer_5">
</g>
<g id="Layer_2">
</g>
<g id="Layer_3">
</g>
<g id="Layer_4">
</g>
<g id="Layer_6">
	<g>
		<path class="st1" d="M55.9,43.6c-5.4,0-9.7-4.4-9.7-9.7s4.4-9.7,9.7-9.7s9.7,4.4,9.7,9.7S61.3,43.6,55.9,43.6z"/>
		<path class="st67" d="M91.3,24.7c-2.5-3.1-5.3-7.5-8.4-11.3c4.3,5.6,6.9,12.6,6.9,20.5c0,6.4-1.9,14.3-7,21v0
			c3.1-3.8,5.9-8.6,8.5-11.7c2.8-3.5,4.7-5.8,4.7-9.2S94.1,28.1,91.3,24.7z"/>
		<path class="st1" d="M55.9,0C40.5,0,27.4,10.4,23.4,24.5c1.1,13.7,9.5,25.4,21.2,31.3c-8.2-4.3-13.7-13.1-13.3-23.1
			C31.8,20,42.2,9.7,55,9.2c14.1-0.5,25.7,10.7,25.7,24.7c0,10.7-6.9,19.9-16.4,23.3c0,0,0,0,0,0c-0.5,0.2-1,0.3-1.5,0.5
			c0,0,0,0,0,0c-3.6,1.1-7.5,1.7-11.5,1.7c-22.2,0-40.3-18-40.3-40.3c0-0.6,0-1.2,0-1.8L1,17.8c-0.6,0-1,0.5-1,1
			c0.5,27.6,23,49.7,50.7,49.7c30,0,39.1-20.7,39.1-34.7C89.8,14.3,73.7,0,55.9,0z"/>
		<path class="st67" d="M55.9,58.6c-4.1,0-8-1-11.4-2.8c0,0,0,0,0,0c-11.7-5.9-20-17.6-21.2-31.3c-0.1-1.1-0.1-2.2-0.1-3.3
			c0-1.2,0.1-2.5,0.2-3.7c0.1-0.6-0.4-1.1-1-1l-11.5,0.7c0,0.6,0,1.2,0,1.8c0,22.2,18,40.3,40.3,40.3c4,0,7.9-0.6,11.5-1.7
			C60.5,58.3,58.3,58.6,55.9,58.6z"/>
	</g>
	<path class="st27" d="M34,22.5C34,22.5,34,22.5,34,22.5c4.1-7.9,12.4-13.3,21.9-13.3c13.7,0,24.7,11.1,24.7,24.7
		c0,13.7-11.1,24.7-24.7,24.7c-10.7,0-19.9-6.9-23.3-16.4c0,0,0,0,0,0c-0.2-0.5-0.3-1-0.5-1.5c0,0,0,0,0,0c-0.6-2.1-0.9-4.4-0.9-6.7
		C31.2,29.8,32.2,25.9,34,22.5z M55.9,43.6c5.4,0,9.7-4.4,9.7-9.7s-4.4-9.7-9.7-9.7s-9.7,4.4-9.7,9.7S50.6,43.6,55.9,43.6z"/>
</g>
</svg>
