<?xml version="1.0" encoding="UTF-8" standalone="no"?>
<!-- Generator: Adobe Illustrator 26.5.0, SVG Export Plug-In . SVG Version: 6.00 Build 0)  -->

<svg
   version="1.1"
   x="0px"
   y="0px"
   viewBox="0 0 375.57798 99.4"
   xml:space="preserve"
   id="svg5139"
   sodipodi:docname="horizontal.svg"
   width="375.57797"
   height="99.400002"
   inkscape:version="1.2.1 (9c6d41e410, 2022-07-14)"
   xmlns:inkscape="http://www.inkscape.org/namespaces/inkscape"
   xmlns:sodipodi="http://sodipodi.sourceforge.net/DTD/sodipodi-0.dtd"
   xmlns="http://www.w3.org/2000/svg"
   xmlns:svg="http://www.w3.org/2000/svg"><defs
   id="defs5143" /><sodipodi:namedview
   id="namedview5141"
   pagecolor="#000000"
   bordercolor="#666666"
   borderopacity="1.0"
   inkscape:showpageshadow="2"
   inkscape:pageopacity="0"
   inkscape:pagecheckerboard="0"
   inkscape:deskcolor="#d1d1d1"
   showgrid="false"
   inkscape:zoom="1.2185704"
   inkscape:cx="327.84318"
   inkscape:cy="192.02829"
   inkscape:window-width="1920"
   inkscape:window-height="2091"
   inkscape:window-x="20"
   inkscape:window-y="20"
   inkscape:window-maximized="0"
   inkscape:current-layer="text5147" />
<style
   type="text/css"
   id="style5026">
	.st0{fill:url(#SVGID_1_);}
	.st1{fill:#0B66F2;}
	.st2{fill:url(#SVGID_00000046330194416577951810000005135421842123931821_);}
	.st3{fill:url(#SVGID_00000068678310186269399970000005220367938638171270_);}
	.st4{fill:none;stroke:#001B69;stroke-width:0.3974;stroke-miterlimit:10;}
	.st5{fill:none;stroke:#001B69;stroke-width:0.3985;stroke-miterlimit:10;}
	.st6{fill:url(#SVGID_00000101789108373209269950000009969702738475266725_);}
	.st7{fill:url(#SVGID_00000161619119610587021280000013729976664020607935_);}
	.st8{fill:url(#SVGID_00000000207390087298103320000016133219167354692789_);}
	.st9{fill:url(#SVGID_00000145028556117414249470000017834538640850036896_);}
	.st10{fill:url(#SVGID_00000108305286298401841470000012915957426680940942_);}
	.st11{fill:url(#SVGID_00000062914572297216211300000005397669673311098291_);}
	.st12{fill:url(#SVGID_00000080202396345224811030000003321204041197166503_);}
	.st13{fill:url(#SVGID_00000047771358387230356800000007622648299106389164_);}
	.st14{fill:url(#SVGID_00000128470883408615931240000015693542647336332474_);}
	.st15{fill:url(#SVGID_00000075139757008287488170000001477090109175313035_);}
	.st16{fill:url(#SVGID_00000030466320611768257680000015145475907053222841_);}
	.st17{fill:url(#SVGID_00000181800186701197513670000003568707613672777109_);}
	.st18{fill:url(#SVGID_00000142857489851404880910000016251323904337316996_);}
	.st19{fill:url(#SVGID_00000111877209066936298090000016889807899513277117_);}
	.st20{fill:url(#SVGID_00000010273356956946473960000002823119987608885431_);}
	.st21{fill:url(#SVGID_00000136409172627062603840000007795620822962872479_);}
	.st22{fill:url(#SVGID_00000052820396348592574840000008199426956681607061_);}
	.st23{fill:url(#SVGID_00000011731154142010414480000003300390653572947627_);}
	.st24{fill:url(#SVGID_00000025417520447997338170000015400850879541127599_);}
	.st25{fill:url(#SVGID_00000156586921386660835730000005886728766837794708_);}
	.st26{fill:url(#SVGID_00000054250728547811855680000007929579204733248423_);}
	.st27{fill:#FFFFFF;}
	.st28{fill:url(#SVGID_00000121267701680182223780000004713423180785545144_);}
	.st29{fill:url(#SVGID_00000130631105018137221550000011098002366968374445_);}
	.st30{fill:url(#SVGID_00000074441203303479395160000017713364328811365038_);}
	.st31{fill:url(#SVGID_00000047056435774912262550000015288992520949478570_);}
	.st32{fill:url(#SVGID_00000134217188904670632610000001544462338208611517_);}
	.st33{fill:url(#SVGID_00000075151811928322407490000014181564806712830882_);}
	.st34{fill:url(#SVGID_00000178902938479177386140000013902065444229551550_);}
	.st35{fill:url(#SVGID_00000039134119582690977710000004279578051265437093_);}
	.st36{fill:url(#SVGID_00000121274919268051885110000004444827237291840695_);}
	.st37{fill:url(#SVGID_00000089545725737479129140000011476813707828242090_);}
	.st38{fill:url(#SVGID_00000140732441214448719590000002421513960255101322_);}
	.st39{fill:url(#SVGID_00000158722776054235254940000001454837254808638649_);}
	.st40{fill:url(#SVGID_00000132076276253967592640000017321356137563580822_);}
	.st41{fill:url(#SVGID_00000093173486038366271260000011692033258583656869_);}
	.st42{fill:url(#SVGID_00000040572192707455976010000017965632567239061132_);}
	.st43{fill:url(#SVGID_00000092441771668477458890000004818726692596698275_);}
	.st44{fill:url(#SVGID_00000078020315625204397560000007263871750612766634_);}
	.st45{fill:url(#SVGID_00000094602624976847851650000003004595840036059268_);}
	.st46{fill:url(#SVGID_00000059297687889943997260000012260125754913781921_);}
	.st47{fill:url(#SVGID_00000031207179519815077270000011570803385045816213_);}
	.st48{fill:url(#SVGID_00000170975577753167562200000010719670544820463024_);}
	.st49{fill:url(#SVGID_00000001622564976780315790000012550453520546948740_);}
	.st50{fill:url(#SVGID_00000124843850005529788630000004836441988027870868_);}
	.st51{fill:url(#SVGID_00000004507476305344152360000017607049705867394477_);}
	.st52{fill:url(#SVGID_00000027574198708358632460000001546259272026731170_);}
	.st53{fill:url(#SVGID_00000019665106619123985170000013207066133106905527_);}
	.st54{fill:url(#SVGID_00000153701660863757030480000017721970217878568093_);}
	.st55{fill:url(#SVGID_00000023969928573663409130000002144976071500332216_);}
	.st56{fill:url(#SVGID_00000129164053255579631210000015602278777288871829_);}
	.st57{fill:url(#SVGID_00000044896764318207698590000005880437388389951641_);}
	.st58{fill:url(#SVGID_00000046335035052735912130000006048610691616810424_);}
	.st59{fill:url(#SVGID_00000036213509104911837490000007073668320952013491_);}
	.st60{fill:url(#SVGID_00000090274219522423815850000010991968164109552558_);}
	.st61{fill:url(#SVGID_00000019638158180300721510000007608546186024760472_);}
	.st62{fill:url(#SVGID_00000105403070494855999040000007742703273856643503_);}
	.st63{fill:url(#SVGID_00000036946476704670170540000001314313737227903106_);}
	.st64{fill:url(#SVGID_00000093855362855721774180000017457485811060187782_);}
	.st65{fill:url(#SVGID_00000105400850787359889360000000895076676917021357_);}
	.st66{fill:url(#SVGID_00000121992448744030799530000006660827397623937165_);}
	.st67{fill:#3BA4FE;}
	.st68{fill:url(#SVGID_00000124865016971699488670000008957007837262668710_);}
	.st69{fill:url(#SVGID_00000161620898570983321450000006683810060886959539_);}
	.st70{fill:url(#SVGID_00000074418872606235896440000011190506248370404508_);}
	.st71{fill:url(#SVGID_00000073679431484927076150000018332135634834020273_);}
	.st72{fill:url(#SVGID_00000173119742966334700380000009799823408629292941_);}
	.st73{fill:url(#SVGID_00000107549761182450792180000014548835845210322563_);}
	.st74{fill:url(#SVGID_00000168099916900823702370000004493494986719180700_);}
	.st75{fill:url(#SVGID_00000177457019890249160020000000159564950558455442_);}
	.st76{fill:url(#SVGID_00000070802970039952122260000016119971824991792260_);}
	.st77{fill:url(#SVGID_00000179608089713161149380000013255016028220851082_);}
	.st78{fill:url(#SVGID_00000181780346290494663070000015583503235210060689_);}
	.st79{fill:url(#SVGID_00000168838509008277022830000016513402646709015979_);}
	.st80{fill:url(#SVGID_00000063629581003083023370000001172210431516027541_);}
	.st81{fill:url(#SVGID_00000065776277298822158140000001516959213397814666_);}
	.st82{fill:url(#SVGID_00000000209066015726685040000002508422921485374344_);}
	.st83{fill:url(#SVGID_00000005945785246747886180000009997996437571427260_);}
	.st84{fill:url(#SVGID_00000041265107275683884390000006791949909749112977_);}
	.st85{fill:url(#SVGID_00000011714681144947029440000007672278858674143416_);}
	.st86{fill:url(#SVGID_00000141452112519781260770000000288709997079330731_);}
	.st87{fill:url(#SVGID_00000127757926201877298960000010637953186213314704_);}
	.st88{fill:url(#SVGID_00000016793654061422383660000002895396861671066003_);}
	.st89{fill:url(#SVGID_00000182526856460158542860000014145270526262814890_);}
	.st90{fill:url(#SVGID_00000158715156867380379210000004018016123904566926_);}
	.st91{fill:url(#SVGID_00000136373621272099232900000003675180379392991631_);}
	.st92{fill:url(#SVGID_00000032617593831330320790000012724738164627227529_);}
	.st93{fill:url(#SVGID_00000142144711024956497870000007516035291469009314_);}
	.st94{fill:url(#SVGID_00000120560720863897622450000012437134668348751019_);}
	.st95{fill:url(#SVGID_00000065061140072124414150000001760099263495597240_);}
	.st96{fill:url(#SVGID_00000018199638698122888530000007886270246722775181_);}
	.st97{fill:url(#SVGID_00000036941877848341539430000011124491730700083368_);}
	.st98{fill:url(#SVGID_00000054977986980975894460000016014968955116644232_);}
	.st99{fill:url(#SVGID_00000142893560436612200530000013627214102435955858_);}
	.st100{fill:url(#SVGID_00000039847807648182299680000014757886347875397298_);}
	.st101{fill:url(#SVGID_00000113319761254159519220000014139674471184620169_);}
	.st102{fill:url(#SVGID_00000096039501663219684720000008497444130548740244_);}
	.st103{fill:#001B69;}
	.st104{fill:url(#SVGID_00000098216767761850793550000011271575124104782765_);}
	.st105{fill:url(#SVGID_00000155115895885229895390000013463665546298573700_);}
	.st106{fill:url(#SVGID_00000061442839085495760000000002249625871477679032_);}
	.st107{fill:url(#SVGID_00000030467572632756546740000015423949527462164906_);}
	.st108{fill:url(#SVGID_00000078765000317000325140000012984961853395297426_);}
	.st109{fill:url(#SVGID_00000024706957048444696340000007554808876142669474_);}
	.st110{fill:url(#SVGID_00000049211645063079425610000008800322817692889530_);}
	.st111{fill:url(#SVGID_00000107574949345577066500000013141037605801550733_);}
	.st112{fill:url(#SVGID_00000044174337289375671200000014681823412479981704_);}
	.st113{fill:url(#SVGID_00000014610720649888015830000017178566209578270611_);}
	.st114{fill:url(#SVGID_00000102525383022387068080000011011343208499540924_);}
	.st115{fill:url(#SVGID_00000124877396838250483940000016174337415969793937_);}
	.st116{fill:url(#SVGID_00000096744269209286599890000015653347800080631473_);}
	.st117{fill:url(#SVGID_00000128486150058203180170000006912492097812972674_);}
	.st118{fill:url(#SVGID_00000021820147353925002770000010924969402295397304_);}
	.st119{fill:url(#SVGID_00000025426549323844745530000011572239650623001991_);}
	.st120{fill:url(#SVGID_00000057108827097508023210000006127478477747184513_);}
	.st121{fill:url(#SVGID_00000108992145961642517830000018064856801891488176_);}
	.st122{fill:url(#SVGID_00000076596698964977234570000015467392479581909133_);}
	.st123{fill:url(#SVGID_00000104703652234467461370000009397164067048816514_);}
	.st124{fill:url(#SVGID_00000144302203391372843230000007637828782510235787_);}
	.st125{fill:url(#SVGID_00000152982118020442435720000018353939809090519180_);}
	.st126{fill:url(#SVGID_00000103253966649900938980000016390059656797972888_);}
	.st127{fill:url(#SVGID_00000132794075765720078460000017217486538357424769_);}
</style>
<g
   id="Layer_1">
</g>
<g
   id="Layer_5">
</g>
<g
   id="Layer_2">
</g>
<g
   id="Layer_3">
</g>
<g
   id="Layer_4">
</g>

<g
   id="g5207"
   transform="translate(8.0019996)"><g
     id="Layer_6"
     transform="translate(-8.0019996)">
	<g
   id="g5136">
		<g
   id="g5134">
			<linearGradient
   id="SVGID_1_"
   gradientUnits="userSpaceOnUse"
   x1="71.333702"
   y1="93.5429"
   x2="16.5151"
   y2="2.9131">
				<stop
   offset="0.1312"
   style="stop-color:#FFFFFF"
   id="stop5033" />
				<stop
   offset="0.1702"
   style="stop-color:#EEF7FF"
   id="stop5035" />
				<stop
   offset="0.2478"
   style="stop-color:#C0E2FF"
   id="stop5037" />
				<stop
   offset="0.3556"
   style="stop-color:#78C1FE"
   id="stop5039" />
				<stop
   offset="0.4407"
   style="stop-color:#3BA4FE"
   id="stop5041" />
				<stop
   offset="0.4731"
   style="stop-color:#379EFD;stop-opacity:0.9373"
   id="stop5043" />
				<stop
   offset="0.6716"
   style="stop-color:#1F80F7;stop-opacity:0.5541"
   id="stop5045" />
				<stop
   offset="0.8404"
   style="stop-color:#106DF3;stop-opacity:0.2281"
   id="stop5047" />
				<stop
   offset="0.9585"
   style="stop-color:#0B66F2;stop-opacity:0"
   id="stop5049" />
			</linearGradient>
			<path
   class="st0"
   d="m 33.9,35.6 c 1.7,19.9 13.7,36.8 30.7,45.4 0,0 0,0 0,0 4.9,2.6 10.6,4 16.5,4 3.4,0 6.7,-0.5 9.8,-1.3 C 85.6,85.2 80,86 74.2,86 42,86 15.8,59.9 15.8,27.6 c 0,-5 0.6,-9.8 1.8,-14.3 L 41.2,2.8 c -4.8,8.2 -7.5,17.8 -7.5,28 0,1.6 0,3.2 0.2,4.8 z"
   id="path5052"
   style="fill:url(#SVGID_1_)" />
			
				<linearGradient
   id="SVGID_00000052795655686436262360000013836724816119701120_"
   gradientUnits="userSpaceOnUse"
   x1="116.9676"
   y1="94.451797"
   x2="32.0961"
   y2="9.5803003">
				<stop
   offset="0"
   style="stop-color:#FFFFFF"
   id="stop5054" />
				<stop
   offset="0.1447"
   style="stop-color:#C7E5FF"
   id="stop5056" />
				<stop
   offset="0.3544"
   style="stop-color:#7CC2FE"
   id="stop5058" />
				<stop
   offset="0.5046"
   style="stop-color:#4DACFE"
   id="stop5060" />
				<stop
   offset="0.5793"
   style="stop-color:#3BA4FE"
   id="stop5062" />
				<stop
   offset="0.7205"
   style="stop-color:#2E93FB;stop-opacity:0.6642"
   id="stop5064" />
				<stop
   offset="1"
   style="stop-color:#0B66F2;stop-opacity:0"
   id="stop5066" />
			</linearGradient>
			<path
   style="fill:url(#SVGID_00000052795655686436262360000013836724816119701120_)"
   d="M 130.2,49.1 C 130.2,20.7 106.8,0 81.1,0 58.7,0 39.8,15 33.9,35.6 35.6,55.5 47.6,72.4 64.6,81 53.1,75 45.3,63 45.3,49.2 c 0,-19.8 16,-35.8 35.8,-35.8 19.8,0 35.8,16 35.8,35.8 0,15.6 -9.9,28.8 -23.8,33.8 0,0 0,0 0,0 -0.7,0.3 -1.4,0.5 -2.2,0.7 0,0 0,0 0,0 C 85.6,85.2 80,86 74.2,86 42,86 15.8,59.9 15.8,27.6 c 0,-5 0.6,-9.8 1.8,-14.3 L 0,25.9 c 0,40.6 32.9,73.5 73.5,73.5 43.6,0 56.7,-30 56.7,-50.3 z"
   id="path5069" />
			
				<linearGradient
   id="SVGID_00000124132798772251479880000013013436718779882144_"
   gradientUnits="userSpaceOnUse"
   x1="6190.8872"
   y1="5949.9707"
   x2="6210.2246"
   y2="5969.3081"
   gradientTransform="rotate(180,3140.8257,3004.3755)">
				<stop
   offset="0"
   style="stop-color:#3BA4FE"
   id="stop5071" />
				<stop
   offset="0.3358"
   style="stop-color:#2E93FB"
   id="stop5073" />
				<stop
   offset="1"
   style="stop-color:#0B66F2"
   id="stop5075" />
			</linearGradient>
			<path
   style="fill:url(#SVGID_00000124132798772251479880000013013436718779882144_)"
   d="m 81.1,35 c 7.8,0 14.1,6.3 14.1,14.1 0,7.8 -6.3,14.1 -14.1,14.1 C 73.3,63.2 67,56.9 67,49.1 67,41.3 73.3,35 81.1,35 Z"
   id="path5078" />
			
				<linearGradient
   id="SVGID_00000018200976781840897930000011457882632160857260_"
   gradientUnits="userSpaceOnUse"
   x1="106.0696"
   y1="35.3424"
   x2="137.4628"
   y2="66.735603">
				<stop
   offset="0"
   style="stop-color:#0B66F2"
   id="stop5080" />
				<stop
   offset="5.648352e-02"
   style="stop-color:#1A79F6"
   id="stop5082" />
				<stop
   offset="0.1368"
   style="stop-color:#288CF9"
   id="stop5084" />
				<stop
   offset="0.2301"
   style="stop-color:#339AFC"
   id="stop5086" />
				<stop
   offset="0.3469"
   style="stop-color:#39A2FE"
   id="stop5088" />
				<stop
   offset="0.5615"
   style="stop-color:#3BA4FE"
   id="stop5090" />
				<stop
   offset="0.6296"
   style="stop-color:#3FA6FE"
   id="stop5092" />
				<stop
   offset="0.6926"
   style="stop-color:#4AABFE"
   id="stop5094" />
				<stop
   offset="0.7537"
   style="stop-color:#5DB4FE"
   id="stop5096" />
				<stop
   offset="0.8135"
   style="stop-color:#77C0FE"
   id="stop5098" />
				<stop
   offset="0.8725"
   style="stop-color:#99D0FE"
   id="stop5100" />
				<stop
   offset="0.9308"
   style="stop-color:#C3E3FF"
   id="stop5102" />
				<stop
   offset="0.9875"
   style="stop-color:#F3FAFF"
   id="stop5104" />
				<stop
   offset="1"
   style="stop-color:#FFFFFF"
   id="stop5106" />
			</linearGradient>
			<path
   style="fill:url(#SVGID_00000018200976781840897930000011457882632160857260_)"
   d="m 132.4,35.7 c -3.7,-4.5 -7.7,-10.9 -12.2,-16.3 6.2,8.1 10,18.3 10,29.7 0,9.3 -2.8,20.8 -10.1,30.4 v 0 c 4.5,-5.5 8.6,-12.4 12.3,-17 4,-5 6.8,-8.3 6.8,-13.4 0,-5.1 -2.8,-8.4 -6.8,-13.4 z"
   id="path5109" />
			
				<linearGradient
   id="SVGID_00000082327065319026817150000012401522758368695720_"
   gradientUnits="userSpaceOnUse"
   x1="8482.2227"
   y1="2870.9036"
   x2="8390.9443"
   y2="2779.626"
   gradientTransform="matrix(-0.7071,-0.7071,0.7071,-0.7071,4048.8999,7985.8398)">
				<stop
   offset="0"
   style="stop-color:#0B66F2"
   id="stop5111" />
				<stop
   offset="3.184882e-02"
   style="stop-color:#1A79F6"
   id="stop5113" />
				<stop
   offset="7.714374e-02"
   style="stop-color:#288CF9"
   id="stop5115" />
				<stop
   offset="0.1297"
   style="stop-color:#339AFC"
   id="stop5117" />
				<stop
   offset="0.1956"
   style="stop-color:#39A2FE"
   id="stop5119" />
				<stop
   offset="0.3166"
   style="stop-color:#3BA4FE"
   id="stop5121" />
				<stop
   offset="0.4027"
   style="stop-color:#4CACFE"
   id="stop5123" />
				<stop
   offset="0.5742"
   style="stop-color:#7AC1FE"
   id="stop5125" />
				<stop
   offset="0.8123"
   style="stop-color:#C2E2FF"
   id="stop5127" />
				<stop
   offset="1"
   style="stop-color:#FFFFFF"
   id="stop5129" />
			</linearGradient>
			<path
   style="fill:url(#SVGID_00000082327065319026817150000012401522758368695720_)"
   d="m 91.9,83.3 c 0,0 0,0 0,0 -12.3,3.9 -26.4,0.9 -36.1,-8.8 -14,-14 -14,-36.7 0,-50.7 14,-14 36.7,-14 50.7,0 11,11 13.4,27.4 7,40.7 0,0 0,0 0,0 -0.3,0.7 -0.7,1.4 -1.1,2 0,0 0,0 0,0 -1.6,2.8 -3.6,5.5 -6,7.9 -4.2,4.3 -9.2,7.2 -14.5,8.9 z M 91.1,39.1 c -5.5,-5.5 -14.5,-5.5 -20,0 -5.5,5.5 -5.5,14.5 0,20 5.5,5.5 14.5,5.5 20,0 5.5,-5.5 5.5,-14.5 0,-20 z"
   id="path5132" />
		</g>
	</g>
</g><g
     aria-label="Adrastia"
     id="text5147"
     style="font-size:64px;line-height:1.25;font-family:'El Messiri';-inkscape-font-specification:'El Messiri';letter-spacing:1px"><path
       d="m 177.60001,70.82 q -1.408,0 -3.456,-0.512 -2.048,-0.576 -4.032,-2.304 -1.984,-1.792 -3.392,-5.504 l -1.6,-4.16 h -17.92 l -5.12,12.16 h -2.88 l 17.92,-42.24 h 1.92 l 14.08,34.24 q 1.536,3.584 2.944,5.056 1.408,1.408 4.096,1.664 v 1.28 q -0.512,0.128 -1.216,0.192 -0.64,0.128 -1.344,0.128 z m -29.44,-15.04 h 15.68 l -7.68,-18.56 z"
       style="fill:#ffffff"
       id="path5273" /><path
       d="m 193.96002,71.14 q -3.84,0 -6.4,-2.112 -2.56,-2.112 -3.84,-5.696 -1.28,-3.584 -1.28,-7.872 0,-4.352 1.28,-7.872 1.344,-3.584 4.032,-5.696 2.688,-2.112 6.848,-2.112 2.688,0 4.608,0.64 1.92,0.576 3.392,1.28 v -5.76 q 0,-2.88 -0.832,-4.608 -0.768,-1.792 -3.648,-1.792 h -1.28 v -1.28 h 5.76 q 2.24,0 3.456,0.576 1.28,0.576 1.792,2.24 0.512,1.664 0.512,4.864 V 70.5 h -3.2 l -2.24,-2.88 h -0.32 q -1.024,1.216 -2.88,2.368 -1.856,1.152 -5.76,1.152 z m 1.92,-2.56 q 1.984,0 3.2,-0.576 1.216,-0.576 1.984,-1.408 0.832,-0.896 1.536,-1.856 V 44.26 q -1.472,-0.704 -3.072,-1.28 -1.536,-0.64 -3.008,-0.64 -2.88,0 -4.672,1.792 -1.728,1.728 -2.56,4.672 -0.768,2.944 -0.768,6.656 0,3.648 0.768,6.656 0.768,2.944 2.368,4.736 1.664,1.728 4.224,1.728 z"
       style="fill:#ffffff"
       id="path5275" /><path
       d="M 219.08803,70.5 V 48.1 q 0,-2.88 -0.832,-4.608 -0.768,-1.792 -3.648,-1.792 h -0.64 v -1.28 h 5.12 q 2.432,0 3.648,0.704 1.28,0.704 1.792,2.176 1.088,-1.088 3.136,-2.304 2.112,-1.216 4.864,-1.216 0.96,0 2.048,0.256 1.088,0.192 1.792,0.704 0.704,0.512 1.216,1.216 0.512,0.704 1.024,1.664 l -2.56,1.92 q -0.704,-0.96 -2.112,-1.408 -1.344,-0.512 -3.008,-0.512 -1.92,0 -3.52,0.896 -1.6,0.832 -2.56,2.304 0,0.32 0,0.96 0,0.576 0,0.96 V 70.5 Z"
       style="fill:#ffffff"
       id="path5277" /><path
       d="m 252.15199,71.14 q -1.344,0 -2.944,-0.448 -1.536,-0.384 -3.008,-1.408 -1.472,-1.024 -2.432,-2.752 -0.896,-1.728 -0.896,-4.352 0,-3.52 2.24,-5.44 2.304,-1.92 6.016,-2.688 3.776,-0.832 8.064,-0.832 h 1.92 q 0,-4.48 -0.896,-6.784 -0.896,-2.368 -2.432,-3.2 -1.472,-0.896 -3.392,-0.896 -2.688,0 -4.544,1.152 -1.792,1.152 -2.496,4.288 h -2.88 q 0,-1.664 0.192,-3.072 0.192,-1.472 1.408,-2.688 1.216,-1.216 3.968,-1.728 2.752,-0.512 5.632,-0.512 2.176,0 4.16,0.512 2.048,0.512 3.584,1.92 1.6,1.344 2.496,4.032 0.96,2.624 0.96,6.976 V 70.5 h -3.2 l -2.24,-2.88 h -0.32 q -0.96,1.216 -3.136,2.368 -2.176,1.152 -5.824,1.152 z m 2.88,-2.88 q 2.368,0 3.712,-1.152 1.408,-1.216 2.368,-2.688 v -8.64 h -1.92 q -4.8,0 -7.552,1.792 -2.688,1.728 -2.688,4.608 0,3.136 1.856,4.608 1.856,1.472 4.224,1.472 z"
       style="fill:#ffffff"
       id="path5279" /><path
       d="m 286.81605,71.14 q -3.84,0 -6.272,-0.64 -2.432,-0.704 -3.648,-1.92 -1.216,-1.216 -1.408,-2.752 -0.192,-1.536 -0.192,-3.968 h 1.28 q 0.512,3.136 2.688,4.928 2.176,1.792 6.272,1.792 3.648,0 5.312,-1.28 1.728,-1.28 1.728,-3.2 0,-1.92 -1.472,-3.2 -1.408,-1.344 -4.288,-2.56 l -3.84,-1.6 q -3.648,-1.472 -5.696,-3.456 -1.984,-2.048 -1.984,-5.184 0,-4.032 3.008,-6.144 3.008,-2.176 7.552,-2.176 3.648,0 6.016,0.704 2.368,0.64 3.584,1.856 1.216,1.216 1.408,2.752 0.192,1.536 0.192,3.968 h -1.28 q -0.512,-3.136 -2.688,-4.928 -2.112,-1.792 -5.952,-1.792 -3.136,0 -4.8,1.28 -1.6,1.28 -1.6,3.2 0,1.664 1.344,3.072 1.344,1.344 3.776,2.368 l 3.84,1.6 q 4.096,1.664 6.208,3.648 2.112,1.984 2.112,5.312 0,4.032 -3.2,6.208 -3.2,2.112 -8,2.112 z"
       style="fill:#ffffff"
       id="path5281" /><path
       d="m 315.20799,71.14 q -3.392,0 -5.568,-1.984 -2.112,-1.984 -2.112,-6.336 V 42.98 h -4.48 v -2.56 h 4.48 v -5.76 l 3.2,-3.84 h 2.56 v 9.6 h 7.68 v 2.56 h -7.68 v 19.84 q 0,2.88 1.088,4.352 1.152,1.408 3.392,1.408 1.664,0 2.752,-0.384 1.088,-0.384 2.048,-0.896 l 0.64,1.28 q -1.024,0.768 -2.816,1.664 -1.792,0.896 -5.184,0.896 z"
       style="fill:#ffffff"
       id="path5283" /><path
       d="M 329.90395,70.5 V 48.1 q 0,-2.88 -0.832,-4.608 -0.768,-1.792 -3.648,-1.792 h -1.28 v -1.28 h 5.76 q 2.24,0 3.456,0.576 1.28,0.576 1.792,2.24 0.512,1.664 0.512,4.864 v 22.4 z m 2.432,-33.92 q -1.472,0 -2.56,-1.216 -1.024,-1.216 -1.024,-2.88 0,-1.344 0.768,-2.112 0.832,-0.768 2.176,-0.768 1.472,0 2.496,1.216 1.088,1.216 1.088,2.88 0,1.344 -0.832,2.112 -0.768,0.768 -2.112,0.768 z"
       style="fill:#ffffff"
       id="path5285" /><path
       d="m 352.85597,71.14 q -1.344,0 -2.944,-0.448 -1.536,-0.384 -3.008,-1.408 -1.472,-1.024 -2.432,-2.752 -0.896,-1.728 -0.896,-4.352 0,-3.52 2.24,-5.44 2.304,-1.92 6.016,-2.688 3.776,-0.832 8.064,-0.832 h 1.92 q 0,-4.48 -0.896,-6.784 -0.896,-2.368 -2.432,-3.2 -1.472,-0.896 -3.392,-0.896 -2.688,0 -4.544,1.152 -1.792,1.152 -2.496,4.288 h -2.88 q 0,-1.664 0.192,-3.072 0.192,-1.472 1.408,-2.688 1.216,-1.216 3.968,-1.728 2.752,-0.512 5.632,-0.512 2.176,0 4.16,0.512 2.048,0.512 3.584,1.92 1.6,1.344 2.496,4.032 0.96,2.624 0.96,6.976 V 70.5 h -3.2 l -2.24,-2.88 h -0.32 q -0.96,1.216 -3.136,2.368 -2.176,1.152 -5.824,1.152 z m 2.88,-2.88 q 2.368,0 3.712,-1.152 1.408,-1.216 2.368,-2.688 v -8.64 h -1.92 q -4.8,0 -7.552,1.792 -2.688,1.728 -2.688,4.608 0,3.136 1.856,4.608 1.856,1.472 4.224,1.472 z"
       style="fill:#ffffff"
       id="path5287" /></g></g></svg>
