<?xml version="1.0" encoding="UTF-8" standalone="no"?>
<!-- Generator: Adobe Illustrator 26.5.0, SVG Export Plug-In . SVG Version: 6.00 Build 0)  -->

<svg
   version="1.1"
   x="0px"
   y="0px"
   viewBox="0 0 376.97798 100.5"
   xml:space="preserve"
   id="svg93"
   sodipodi:docname="horizontal.svg"
   width="376.97797"
   height="100.5"
   inkscape:version="1.2.1 (9c6d41e410, 2022-07-14)"
   xmlns:inkscape="http://www.inkscape.org/namespaces/inkscape"
   xmlns:sodipodi="http://sodipodi.sourceforge.net/DTD/sodipodi-0.dtd"
   xmlns="http://www.w3.org/2000/svg"
   xmlns:svg="http://www.w3.org/2000/svg"><defs
   id="defs97" /><sodipodi:namedview
   id="namedview95"
   pagecolor="#ffffff"
   bordercolor="#666666"
   borderopacity="1.0"
   inkscape:showpageshadow="2"
   inkscape:pageopacity="0.0"
   inkscape:pagecheckerboard="0"
   inkscape:deskcolor="#d1d1d1"
   showgrid="false"
   inkscape:zoom="1.2185704"
   inkscape:cx="325.38128"
   inkscape:cy="324.97096"
   inkscape:window-width="1920"
   inkscape:window-height="2091"
   inkscape:window-x="20"
   inkscape:window-y="20"
   inkscape:window-maximized="0"
   inkscape:current-layer="text385"
   shape-rendering="auto" />
<style
   type="text/css"
   id="style2">
	.st0{fill:url(#SVGID_1_);}
	.st1{fill:#0B66F2;}
	.st2{fill:url(#SVGID_00000109740120004690019160000001085235326929508519_);}
	.st3{fill:url(#SVGID_00000181771392066161909070000016177850663974295212_);}
	.st4{fill:none;stroke:#001B69;stroke-width:0.3974;stroke-miterlimit:10;}
	.st5{fill:none;stroke:#001B69;stroke-width:0.3985;stroke-miterlimit:10;}
	.st6{fill:url(#SVGID_00000036936588964254961990000012261154425782634644_);}
	.st7{fill:url(#SVGID_00000029750885057342023310000014683204594861220749_);}
	.st8{fill:url(#SVGID_00000093150102968235316410000004412261281548053182_);}
	.st9{fill:url(#SVGID_00000137844158673521641420000007680733164930356870_);}
	.st10{fill:url(#SVGID_00000063596694506245721840000005605382819952936893_);}
	.st11{fill:url(#SVGID_00000072252415900299452680000007828005167794107548_);}
	.st12{fill:url(#SVGID_00000183931751271005777000000013457983629600204186_);}
	.st13{fill:url(#SVGID_00000127723763285350253570000010566383096445121434_);}
	.st14{fill:url(#SVGID_00000111165516380633762130000008957913246574521011_);}
	.st15{fill:url(#SVGID_00000009565922343107041940000001394499523629882550_);}
	.st16{fill:url(#SVGID_00000023272197304049601670000016465252599086833027_);}
	.st17{fill:url(#SVGID_00000015345891483638867680000015373397751323173808_);}
	.st18{fill:url(#SVGID_00000022561714588815070500000006096528476337374613_);}
	.st19{fill:url(#SVGID_00000173868647859082735660000004567954977658900630_);}
	.st20{fill:url(#SVGID_00000105399328230530320340000002688800431891566771_);}
	.st21{fill:url(#SVGID_00000117662091757245890610000004840097139393489826_);}
	.st22{fill:url(#SVGID_00000142897134073942401000000002701748630329485740_);}
	.st23{fill:url(#SVGID_00000114040504398755426610000016655444913453954452_);}
	.st24{fill:url(#SVGID_00000058560210965733272760000006979480320562955692_);}
	.st25{fill:url(#SVGID_00000181070773086560692520000014354460465881078195_);}
	.st26{fill:url(#SVGID_00000031172870247237753000000005578818434473996186_);}
	.st27{fill:#FFFFFF;}
	.st28{fill:url(#SVGID_00000016766051632541445690000001460535982020227245_);}
	.st29{fill:url(#SVGID_00000012438402238937721660000007860537353013741457_);}
	.st30{fill:url(#SVGID_00000080902303408361728440000012807525043462723750_);}
	.st31{fill:url(#SVGID_00000120541239701764127890000002103866290278631605_);}
	.st32{fill:url(#SVGID_00000004508395343727768710000008458276991811768452_);}
	.st33{fill:url(#SVGID_00000137840929701796074850000001114491393272755627_);}
	.st34{fill:url(#SVGID_00000052069593537160499520000011742351021456398011_);}
	.st35{fill:url(#SVGID_00000183957402319782628770000015464115901975901096_);}
	.st36{fill:url(#SVGID_00000151519202001927113960000013450039407546707894_);}
	.st37{fill:url(#SVGID_00000083798512315598828370000006295100137309977269_);}
	.st38{fill:url(#SVGID_00000108273358360026851050000011909650053209284743_);}
	.st39{fill:url(#SVGID_00000006694107755188705900000015552110669594023558_);}
	.st40{fill:url(#SVGID_00000018949091826423885140000014298578366955941264_);}
	.st41{fill:url(#SVGID_00000072965647971324661810000015473448737139616640_);}
	.st42{fill:url(#SVGID_00000043442266567829147870000008022938584661313929_);}
	.st43{fill:url(#SVGID_00000106119570674188172480000011953931225314266027_);}
	.st44{fill:url(#SVGID_00000080187295791122517310000016707416226109097859_);}
	.st45{fill:url(#SVGID_00000026886218028887038600000008044181520388344251_);}
	.st46{fill:url(#SVGID_00000061435551326040186200000015271736679685464507_);}
	.st47{fill:url(#SVGID_00000159437564277131009620000003371387015293840771_);}
	.st48{fill:url(#SVGID_00000097488613891672690850000015937421627117515431_);}
	.st49{fill:url(#SVGID_00000078743728628172873470000017080519198546475705_);}
	.st50{fill:url(#SVGID_00000092438093297526062890000008849080181197180816_);}
	.st51{fill:url(#SVGID_00000124143450783201223570000007820031213874109063_);}
	.st52{fill:url(#SVGID_00000016074662842296990720000017895612296595367824_);}
	.st53{fill:url(#SVGID_00000116195616988130253360000007403229473554738852_);}
	.st54{fill:url(#SVGID_00000105403890996829390260000012860319703879850388_);}
	.st55{fill:url(#SVGID_00000123407068426015653480000001734137610865736615_);}
	.st56{fill:url(#SVGID_00000049936183557363480340000012130326768113271179_);}
	.st57{fill:url(#SVGID_00000048499567422773982960000016941566702504232895_);}
	.st58{fill:url(#SVGID_00000106141658558689663230000000396284248991947186_);}
	.st59{fill:url(#SVGID_00000007426515542169489030000007949509148395913917_);}
	.st60{fill:url(#SVGID_00000148648380897996033960000001477097374373209260_);}
	.st61{fill:url(#SVGID_00000182527060166459976890000000136829126366870968_);}
	.st62{fill:url(#SVGID_00000150821179601581444820000006531297770335642552_);}
	.st63{fill:url(#SVGID_00000106861537629783455570000005914911135295387790_);}
	.st64{fill:url(#SVGID_00000031169364317767765130000001706531347448983986_);}
	.st65{fill:url(#SVGID_00000098926922131737552870000014025118874397282206_);}
	.st66{fill:url(#SVGID_00000067948609024536713080000004635104537522971270_);}
	.st67{fill:#3BA4FE;}
	.st68{fill:url(#SVGID_00000124159270339551971200000015405818730150042815_);}
	.st69{fill:url(#SVGID_00000085211945745159774120000004759805010203925684_);}
	.st70{fill:url(#SVGID_00000111908587909185893640000007069265531414115996_);}
	.st71{fill:url(#SVGID_00000117646639381092364510000007357208187813448592_);}
	.st72{fill:url(#SVGID_00000021104527182652707050000014410813864594424982_);}
	.st73{fill:url(#SVGID_00000179644864034431743700000013796922168901703839_);}
	.st74{fill:url(#SVGID_00000114755907262996653070000016622404424034343054_);}
	.st75{fill:url(#SVGID_00000092440247127644423230000006859730297444380063_);}
	.st76{fill:url(#SVGID_00000080896611649390757800000001778598378708091050_);}
	.st77{fill:url(#SVGID_00000183212590171773171790000008599146647971529858_);}
	.st78{fill:url(#SVGID_00000117651727437551009080000002440761512703177109_);}
	.st79{fill:url(#SVGID_00000076564302242199161780000012481333451892938163_);}
	.st80{fill:url(#SVGID_00000026881279000766822860000009447871576958192005_);}
	.st81{fill:url(#SVGID_00000104708614904577990400000015122391543416638648_);}
	.st82{fill:url(#SVGID_00000158003105477646517910000012939043268576173998_);}
	.st83{fill:url(#SVGID_00000178180617992045593060000000061745621196499899_);}
	.st84{fill:url(#SVGID_00000060728467525091514030000009016126847478371485_);}
	.st85{fill:url(#SVGID_00000100367367066420757830000003104575817167965844_);}
	.st86{fill:url(#SVGID_00000031173902152692479180000001528494466623552662_);}
	.st87{fill:url(#SVGID_00000033352023384869545460000005041579229259791238_);}
	.st88{fill:url(#SVGID_00000052814731228170716930000008570390964189780396_);}
	.st89{fill:url(#SVGID_00000034073145623163906350000003975745332344890277_);}
	.st90{fill:url(#SVGID_00000062910468296038479830000012549267400513248137_);}
	.st91{fill:url(#SVGID_00000057147157315273314380000008846994390177065097_);}
	.st92{fill:url(#SVGID_00000014615761284450786880000005345499813148126850_);}
	.st93{fill:url(#SVGID_00000040576191739328197960000004810800472434948994_);}
	.st94{fill:url(#SVGID_00000110469091829271471880000007701950864086870691_);}
	.st95{fill:url(#SVGID_00000023966680087394527380000001306165533787878570_);}
	.st96{fill:url(#SVGID_00000120525140443986953120000010190798726536115585_);}
	.st97{fill:url(#SVGID_00000033360321419527749960000007543972828078685859_);}
	.st98{fill:url(#SVGID_00000008857568641149966930000006773457985451262343_);}
	.st99{fill:url(#SVGID_00000115492745187595560890000007181472071034582927_);}
	.st100{fill:url(#SVGID_00000057860280714645041590000007987306523853747370_);}
	.st101{fill:url(#SVGID_00000163786259605735582450000010801842524742096014_);}
	.st102{fill:url(#SVGID_00000170966479109538846720000008421995492980418985_);}
	.st103{fill:#001B69;}
	.st104{fill:url(#SVGID_00000114753438859916060610000015086210478329660844_);}
	.st105{fill:url(#SVGID_00000002362613978548737330000002099783227565722544_);}
	.st106{fill:url(#SVGID_00000077321651100294647030000008541940114540683159_);}
	.st107{fill:url(#SVGID_00000160151412598526860960000016927131394835660438_);}
	.st108{fill:url(#SVGID_00000008111244687934839170000016216651471455777189_);}
	.st109{fill:url(#SVGID_00000107545977621269977230000013875811241817214083_);}
	.st110{fill:url(#SVGID_00000170959215374962971200000006320617385403285136_);}
	.st111{fill:url(#SVGID_00000144330822575678650840000002708428707937532560_);}
	.st112{fill:url(#SVGID_00000153703094709662665200000013261379409388916119_);}
	.st113{fill:url(#SVGID_00000159468836467454532640000001171505138250579646_);}
	.st114{fill:url(#SVGID_00000053512671348486237580000006153467973248693407_);}
	.st115{fill:url(#SVGID_00000000902178173941803620000003762749364708070077_);}
	.st116{fill:url(#SVGID_00000139999578643695393670000008129578725615435687_);}
	.st117{fill:url(#SVGID_00000057846757436363383040000007796334682164802948_);}
	.st118{fill:url(#SVGID_00000160873343532953158410000008321192962909345426_);}
	.st119{fill:url(#SVGID_00000127744148545683325520000007916914385341425319_);}
	.st120{fill:url(#SVGID_00000004505601449354018650000006842384725264328599_);}
	.st121{fill:url(#SVGID_00000015330325115368647920000000208095768555119287_);}
	.st122{fill:url(#SVGID_00000093864611493945515060000010907660485250491028_);}
	.st123{fill:url(#SVGID_00000011017711004311003480000015790912214076037267_);}
	.st124{fill:url(#SVGID_00000001634182916158810060000014770743864613590688_);}
	.st125{fill:url(#SVGID_00000072980381980390230290000009566126433421376129_);}
	.st126{fill:url(#SVGID_00000155108187562859233800000001719491473710858116_);}
	.st127{fill:url(#SVGID_00000155116038597648943110000005697309262342535596_);}
</style>
<g
   id="Layer_1"
   transform="translate(0.7,0.5)">
</g>
<g
   id="Layer_5"
   transform="translate(0.7,0.5)">
</g>
<g
   id="Layer_2"
   transform="translate(0.7,0.5)">
</g>
<g
   id="Layer_3"
   transform="translate(0.7,0.5)">
</g>
<g
   id="Layer_4"
   transform="translate(0.7,0.5)">
</g>

<g
   id="g3572"
   transform="translate(16.003007)"><g
     id="Layer_6"
     transform="translate(-15.303007,0.5)">
	<g
   id="g90">
		<g
   id="g88">
			<linearGradient
   id="SVGID_1_"
   gradientUnits="userSpaceOnUse"
   x1="16.6411"
   y1="15.644"
   x2="69.388"
   y2="68.3909">
				<stop
   offset="5.392407e-02"
   style="stop-color:#FFFFFF;stop-opacity:0"
   id="stop9" />
				<stop
   offset="0.2157"
   style="stop-color:#ABD8FF;stop-opacity:0.4029"
   id="stop11" />
				<stop
   offset="0.38"
   style="stop-color:#5BB3FE;stop-opacity:0.812"
   id="stop13" />
				<stop
   offset="0.4555"
   style="stop-color:#3BA4FE"
   id="stop15" />
				<stop
   offset="0.6383"
   style="stop-color:#2E93FB"
   id="stop17" />
				<stop
   offset="1"
   style="stop-color:#0B66F2"
   id="stop19" />
			</linearGradient>
			<path
   class="st0"
   d="m 33.5,35.4 c 1.7,20.1 13.8,37.2 31,45.8 0,0 0,0 0,0 5,2.6 10.7,4.1 16.7,4.1 3.4,0 6.7,-0.5 9.9,-1.4 -5.3,1.6 -11,2.4 -16.9,2.4 -32.6,0 -59,-26.4 -59,-59 0,-5 0.6,-9.9 1.8,-14.5 L 40.9,2.3 c -4.8,8.3 -7.6,18 -7.6,28.3 0,1.6 0.1,3.2 0.2,4.8 z"
   id="path22"
   style="fill:url(#SVGID_1_)" />
			
				<linearGradient
   id="SVGID_00000142138175638968502650000008503793446236471185_"
   gradientUnits="userSpaceOnUse"
   x1="31.3435"
   y1="8.8004999"
   x2="111.1028"
   y2="88.559898">
				<stop
   offset="5.370155e-03"
   style="stop-color:#FFFFFF;stop-opacity:0"
   id="stop24" />
				<stop
   offset="7.990299e-03"
   style="stop-color:#FDFEFF;stop-opacity:5.911529e-03"
   id="stop26" />
				<stop
   offset="6.938049e-02"
   style="stop-color:#CAE6FF;stop-opacity:0.1444"
   id="stop28" />
				<stop
   offset="0.1319"
   style="stop-color:#9ED2FF;stop-opacity:0.2855"
   id="stop30" />
				<stop
   offset="0.1946"
   style="stop-color:#7AC1FE;stop-opacity:0.427"
   id="stop32" />
				<stop
   offset="0.2574"
   style="stop-color:#5FB4FE;stop-opacity:0.5687"
   id="stop34" />
				<stop
   offset="0.3205"
   style="stop-color:#4BABFE;stop-opacity:0.711"
   id="stop36" />
				<stop
   offset="0.384"
   style="stop-color:#3FA6FE;stop-opacity:0.8543"
   id="stop38" />
				<stop
   offset="0.4486"
   style="stop-color:#3BA4FE"
   id="stop40" />
				<stop
   offset="0.6337"
   style="stop-color:#2E93FB"
   id="stop42" />
				<stop
   offset="1"
   style="stop-color:#0B66F2"
   id="stop44" />
			</linearGradient>
			<path
   style="fill:url(#SVGID_00000142138175638968502650000008503793446236471185_)"
   d="m 130.8,49.1 c 0,-28.7 -23.7,-49.6 -49.6,-49.6 -22.7,0 -41.8,15.2 -47.7,35.9 1.7,20.1 13.8,37.2 31,45.8 C 52.9,75.2 45,63.1 45,49.1 c 0,-20 16.2,-36.2 36.2,-36.2 20,0 36.2,16.2 36.2,36.2 0,15.7 -10,29.1 -24.1,34.1 0,0 0,0 0,0 -0.7,0.3 -1.5,0.5 -2.2,0.7 0,0 0,0 0,0 -5.3,1.6 -11,2.4 -16.9,2.4 -32.6,0 -59,-26.4 -59,-59 0,-5 0.6,-9.9 1.8,-14.5 L -0.7,25.7 c 0,41 33.3,74.3 74.3,74.3 44,0 57.2,-30.4 57.2,-50.9 z"
   id="path47" />
			
				<linearGradient
   id="SVGID_00000057862240790064532020000012712747871381184900_"
   gradientUnits="userSpaceOnUse"
   x1="71.452103"
   y1="39.342602"
   x2="90.987198"
   y2="58.877701">
				<stop
   offset="0"
   style="stop-color:#3BA4FE"
   id="stop49" />
				<stop
   offset="0.3358"
   style="stop-color:#2E93FB"
   id="stop51" />
				<stop
   offset="1"
   style="stop-color:#0B66F2"
   id="stop53" />
			</linearGradient>
			<path
   style="fill:url(#SVGID_00000057862240790064532020000012712747871381184900_)"
   d="M 81.2,63.4 C 73.3,63.4 67,57 67,49.1 c 0,-7.9 6.4,-14.3 14.3,-14.3 7.9,0 14.3,6.4 14.3,14.3 0,7.9 -6.5,14.3 -14.4,14.3 z"
   id="path56" />
			
				<linearGradient
   id="SVGID_00000094614038822257139270000013512981951128669598_"
   gradientUnits="userSpaceOnUse"
   x1="123.1182"
   y1="51.870701"
   x2="135.5786"
   y2="64.3311">
				<stop
   offset="0.1449"
   style="stop-color:#3BA4FE"
   id="stop58" />
				<stop
   offset="0.9165"
   style="stop-color:#0B66F2"
   id="stop60" />
			</linearGradient>
			<path
   style="fill:url(#SVGID_00000094614038822257139270000013512981951128669598_)"
   d="m 133.1,35.6 c -3.7,-4.6 -7.8,-11 -12.3,-16.5 6.3,8.2 10.1,18.5 10.1,30 0,9.4 -2.8,21 -10.2,30.7 v 0 c 4.6,-5.5 8.7,-12.6 12.4,-17.2 4.1,-5.1 6.8,-8.4 6.8,-13.5 0,-5.1 -2.8,-8.5 -6.8,-13.5 z"
   id="path63" />
			
				<linearGradient
   id="SVGID_00000109734652414126257700000006602826953264866480_"
   gradientUnits="userSpaceOnUse"
   x1="146.3275"
   y1="114.2208"
   x2="54.116199"
   y2="22.009501">
				<stop
   offset="0"
   style="stop-color:#0B66F2"
   id="stop65" />
				<stop
   offset="3.184882e-02"
   style="stop-color:#1A79F6"
   id="stop67" />
				<stop
   offset="7.714374e-02"
   style="stop-color:#288CF9"
   id="stop69" />
				<stop
   offset="0.1297"
   style="stop-color:#339AFC"
   id="stop71" />
				<stop
   offset="0.1956"
   style="stop-color:#39A2FE"
   id="stop73" />
				<stop
   offset="0.3166"
   style="stop-color:#3BA4FE"
   id="stop75" />
				<stop
   offset="0.4027"
   style="stop-color:#4CACFE"
   id="stop77" />
				<stop
   offset="0.5742"
   style="stop-color:#7AC1FE"
   id="stop79" />
				<stop
   offset="0.8123"
   style="stop-color:#C2E2FF"
   id="stop81" />
				<stop
   offset="1"
   style="stop-color:#FFFFFF"
   id="stop83" />
			</linearGradient>
			<path
   style="fill:url(#SVGID_00000109734652414126257700000006602826953264866480_)"
   d="m 49.1,32.4 c 0,0 0,0 0,0 6,-11.6 18.2,-19.5 32.1,-19.5 20,0 36.2,16.2 36.2,36.2 0,20 -16.2,36.2 -36.2,36.2 -15.7,0 -29.1,-10 -34.1,-24.1 0,0 0,0 0,0 -0.2,-0.7 -0.5,-1.5 -0.7,-2.2 0,0 0,0 0,0 -0.9,-3.1 -1.4,-6.4 -1.4,-9.9 0,-6 1.5,-11.7 4.1,-16.7 z m 32.1,31 c 7.9,0 14.3,-6.4 14.3,-14.3 0,-7.9 -6.4,-14.3 -14.3,-14.3 -7.9,0 -14.2,6.4 -14.2,14.3 0,7.9 6.3,14.3 14.2,14.3 z"
   id="path86" />
		</g>
	</g>
</g><g
     aria-label="Adrastia"
     id="text385"
     style="font-size:64px;line-height:1.25;font-family:'El Messiri';-inkscape-font-specification:'El Messiri';letter-spacing:1px;fill:#9c2121"><path
       d="m 170.99899,71.370003 q -1.408,0 -3.456,-0.512 -2.048,-0.576 -4.032,-2.304 -1.984,-1.792 -3.392,-5.504 l -1.6,-4.16 h -17.92 l -5.12,12.16 h -2.88 l 17.92,-42.24 h 1.92 l 14.08,34.24 q 1.536,3.584 2.944,5.056 1.408,1.408 4.096,1.664 v 1.28 q -0.512,0.128 -1.216,0.192 -0.64,0.128 -1.344,0.128 z m -29.44,-15.04 h 15.68 l -7.68,-18.56 z"
       style="fill:#2196f3"
       id="path5209" /><path
       d="m 187.35901,71.690003 q -3.84,0 -6.4,-2.112 -2.56,-2.112 -3.84,-5.696 -1.28,-3.584 -1.28,-7.872 0,-4.352 1.28,-7.872 1.344,-3.584 4.032,-5.696 2.688,-2.112 6.848,-2.112 2.688,0 4.608,0.64 1.92,0.576 3.392,1.28 v -5.76 q 0,-2.88 -0.832,-4.608 -0.768,-1.792 -3.648,-1.792 h -1.28 v -1.28 h 5.76 q 2.24,0 3.456,0.576 1.28,0.576 1.792,2.24 0.512,1.664 0.512,4.864 v 34.56 h -3.2 l -2.24,-2.88 h -0.32 q -1.024,1.216 -2.88,2.368 -1.856,1.152 -5.76,1.152 z m 1.92,-2.56 q 1.984,0 3.2,-0.576 1.216,-0.576 1.984,-1.408 0.832,-0.896 1.536,-1.856 v -20.48 q -1.472,-0.704 -3.072,-1.28 -1.536,-0.64 -3.008,-0.64 -2.88,0 -4.672,1.792 -1.728,1.728 -2.56,4.672 -0.768,2.944 -0.768,6.656 0,3.648 0.768,6.656 0.768,2.944 2.368,4.736 1.664,1.728 4.224,1.728 z"
       style="fill:#2196f3"
       id="path5211" /><path
       d="m 212.48702,71.050003 v -22.4 q 0,-2.88 -0.832,-4.608 -0.768,-1.792 -3.648,-1.792 h -0.64 v -1.28 h 5.12 q 2.432,0 3.648,0.704 1.28,0.704 1.792,2.176 1.088,-1.088 3.136,-2.304 2.112,-1.216 4.864,-1.216 0.96,0 2.048,0.256 1.088,0.192 1.792,0.704 0.704,0.512 1.216,1.216 0.512,0.704 1.024,1.664 l -2.56,1.92 q -0.704,-0.96 -2.112,-1.408 -1.344,-0.512 -3.008,-0.512 -1.92,0 -3.52,0.896 -1.6,0.832 -2.56,2.304 0,0.32 0,0.96 0,0.576 0,0.96 v 21.76 z"
       style="fill:#2196f3"
       id="path5213" /><path
       d="m 245.55098,71.690003 q -1.344,0 -2.944,-0.448 -1.536,-0.384 -3.008,-1.408 -1.472,-1.024 -2.432,-2.752 -0.896,-1.728 -0.896,-4.352 0,-3.52 2.24,-5.44 2.304,-1.92 6.016,-2.688 3.776,-0.832 8.064,-0.832 h 1.92 q 0,-4.48 -0.896,-6.784 -0.896,-2.368 -2.432,-3.2 -1.472,-0.896 -3.392,-0.896 -2.688,0 -4.544,1.152 -1.792,1.152 -2.496,4.288 h -2.88 q 0,-1.664 0.192,-3.072 0.192,-1.472 1.408,-2.688 1.216,-1.216 3.968,-1.728 2.752,-0.512 5.632,-0.512 2.176,0 4.16,0.512 2.048,0.512 3.584,1.92 1.6,1.344 2.496,4.032 0.96,2.624 0.96,6.976 v 17.28 h -3.2 l -2.24,-2.88 h -0.32 q -0.96,1.216 -3.136,2.368 -2.176,1.152 -5.824,1.152 z m 2.88,-2.88 q 2.368,0 3.712,-1.152 1.408,-1.216 2.368,-2.688 v -8.64 h -1.92 q -4.8,0 -7.552,1.792 -2.688,1.728 -2.688,4.608 0,3.136 1.856,4.608 1.856,1.472 4.224,1.472 z"
       style="fill:#2196f3"
       id="path5215" /><path
       d="m 280.21504,71.690003 q -3.84,0 -6.272,-0.64 -2.432,-0.704 -3.648,-1.92 -1.216,-1.216 -1.408,-2.752 -0.192,-1.536 -0.192,-3.968 h 1.28 q 0.512,3.136 2.688,4.928 2.176,1.792 6.272,1.792 3.648,0 5.312,-1.28 1.728,-1.28 1.728,-3.2 0,-1.92 -1.472,-3.2 -1.408,-1.344 -4.288,-2.56 l -3.84,-1.6 q -3.648,-1.472 -5.696,-3.456 -1.984,-2.048 -1.984,-5.184 0,-4.032 3.008,-6.144 3.008,-2.176 7.552,-2.176 3.648,0 6.016,0.704 2.368,0.64 3.584,1.856 1.216,1.216 1.408,2.752 0.192,1.536 0.192,3.968 h -1.28 q -0.512,-3.136 -2.688,-4.928 -2.112,-1.792 -5.952,-1.792 -3.136,0 -4.8,1.28 -1.6,1.28 -1.6,3.2 0,1.664 1.344,3.072 1.344,1.344 3.776,2.368 l 3.84,1.6 q 4.096,1.664 6.208,3.648 2.112,1.984 2.112,5.312 0,4.032 -3.2,6.208 -3.2,2.112 -8,2.112 z"
       style="fill:#2196f3"
       id="path5217" /><path
       d="m 308.60698,71.690003 q -3.392,0 -5.568,-1.984 -2.112,-1.984 -2.112,-6.336 v -19.84 h -4.48 v -2.56 h 4.48 v -5.76 l 3.2,-3.84 h 2.56 v 9.6 h 7.68 v 2.56 h -7.68 v 19.84 q 0,2.88 1.088,4.352 1.152,1.408 3.392,1.408 1.664,0 2.752,-0.384 1.088,-0.384 2.048,-0.896 l 0.64,1.28 q -1.024,0.768 -2.816,1.664 -1.792,0.896 -5.184,0.896 z"
       style="fill:#2196f3"
       id="path5219" /><path
       d="m 323.30294,71.050003 v -22.4 q 0,-2.88 -0.832,-4.608 -0.768,-1.792 -3.648,-1.792 h -1.28 v -1.28 h 5.76 q 2.24,0 3.456,0.576 1.28,0.576 1.792,2.24 0.512,1.664 0.512,4.864 v 22.4 z m 2.432,-33.92 q -1.472,0 -2.56,-1.216 -1.024,-1.216 -1.024,-2.88 0,-1.344 0.768,-2.112 0.832,-0.768 2.176,-0.768 1.472,0 2.496,1.216 1.088,1.216 1.088,2.88 0,1.344 -0.832,2.112 -0.768,0.768 -2.112,0.768 z"
       style="fill:#2196f3"
       id="path5221" /><path
       d="m 346.25496,71.690003 q -1.344,0 -2.944,-0.448 -1.536,-0.384 -3.008,-1.408 -1.472,-1.024 -2.432,-2.752 -0.896,-1.728 -0.896,-4.352 0,-3.52 2.24,-5.44 2.304,-1.92 6.016,-2.688 3.776,-0.832 8.064,-0.832 h 1.92 q 0,-4.48 -0.896,-6.784 -0.896,-2.368 -2.432,-3.2 -1.472,-0.896 -3.392,-0.896 -2.688,0 -4.544,1.152 -1.792,1.152 -2.496,4.288 h -2.88 q 0,-1.664 0.192,-3.072 0.192,-1.472 1.408,-2.688 1.216,-1.216 3.968,-1.728 2.752,-0.512 5.632,-0.512 2.176,0 4.16,0.512 2.048,0.512 3.584,1.92 1.6,1.344 2.496,4.032 0.96,2.624 0.96,6.976 v 17.28 h -3.2 l -2.24,-2.88 h -0.32 q -0.96,1.216 -3.136,2.368 -2.176,1.152 -5.824,1.152 z m 2.88,-2.88 q 2.368,0 3.712,-1.152 1.408,-1.216 2.368,-2.688 v -8.64 h -1.92 q -4.8,0 -7.552,1.792 -2.688,1.728 -2.688,4.608 0,3.136 1.856,4.608 1.856,1.472 4.224,1.472 z"
       style="fill:#2196f3"
       id="path5223" /></g></g></svg>
